<?xml version="1.0" encoding="UTF-8"?>
<svg xmlns="http://www.w3.org/2000/svg" xmlns:xlink="http://www.w3.org/1999/xlink" width="160px" height="50px" viewBox="0 0 160 50" version="1.1">
<g id="surface1">
<path style=" stroke:none;fill-rule:nonzero;fill:rgb(100%,35.294118%,37.254902%);fill-opacity:1;" d="M 84.324219 12.5625 C 84.324219 14.363281 82.875 15.816406 81.074219 15.816406 C 79.277344 15.816406 77.828125 14.363281 77.828125 12.5625 C 77.828125 10.761719 79.226562 9.308594 81.074219 9.308594 C 82.925781 9.359375 84.324219 10.8125 84.324219 12.5625 Z M 70.933594 19.121094 L 70.933594 19.921875 C 70.933594 19.921875 69.382812 17.917969 66.085938 17.917969 C 60.640625 17.917969 56.390625 22.070312 56.390625 27.828125 C 56.390625 33.535156 60.589844 37.738281 66.085938 37.738281 C 69.433594 37.738281 70.933594 35.683594 70.933594 35.683594 L 70.933594 36.535156 C 70.933594 36.9375 71.230469 37.234375 71.632812 37.234375 L 75.679688 37.234375 L 75.679688 18.417969 L 71.632812 18.417969 C 71.230469 18.417969 70.933594 18.769531 70.933594 19.121094 Z M 70.933594 31.179688 C 70.183594 32.28125 68.683594 33.234375 66.886719 33.234375 C 63.6875 33.234375 61.238281 31.230469 61.238281 27.828125 C 61.238281 24.425781 63.6875 22.421875 66.886719 22.421875 C 68.632812 22.421875 70.234375 23.421875 70.933594 24.472656 Z M 78.675781 18.417969 L 83.472656 18.417969 L 83.472656 37.238281 L 78.675781 37.238281 Z M 150.332031 17.917969 C 147.035156 17.917969 145.484375 19.921875 145.484375 19.921875 L 145.484375 9.359375 L 140.6875 9.359375 L 140.6875 37.238281 L 144.738281 37.238281 C 145.136719 37.238281 145.4375 36.886719 145.4375 36.535156 L 145.4375 35.6875 C 145.4375 35.6875 146.984375 37.738281 150.28125 37.738281 C 155.730469 37.738281 159.976562 33.535156 159.976562 27.828125 C 159.976562 22.125 155.730469 17.917969 150.332031 17.917969 Z M 149.535156 33.183594 C 147.683594 33.183594 146.234375 32.234375 145.484375 31.132812 L 145.484375 24.425781 C 146.234375 23.421875 147.835938 22.371094 149.535156 22.371094 C 152.730469 22.371094 155.179688 24.375 155.179688 27.777344 C 155.179688 31.179688 152.730469 33.183594 149.535156 33.183594 Z M 138.191406 26.078125 L 138.191406 37.289062 L 133.394531 37.289062 L 133.394531 26.625 C 133.394531 23.523438 132.394531 22.273438 129.699219 22.273438 C 128.25 22.273438 126.75 23.023438 125.796875 24.125 L 125.796875 37.238281 L 121.003906 37.238281 L 121.003906 18.417969 L 124.796875 18.417969 C 125.199219 18.417969 125.5 18.769531 125.5 19.121094 L 125.5 19.921875 C 126.898438 18.46875 128.746094 17.917969 130.59375 17.917969 C 132.695312 17.917969 134.441406 18.519531 135.84375 19.71875 C 137.539062 21.121094 138.191406 22.921875 138.191406 26.078125 Z M 109.359375 17.917969 C 106.0625 17.917969 104.511719 19.921875 104.511719 19.921875 L 104.511719 9.359375 L 99.714844 9.359375 L 99.714844 37.238281 L 103.761719 37.238281 C 104.160156 37.238281 104.460938 36.886719 104.460938 36.535156 L 104.460938 35.6875 C 104.460938 35.6875 106.011719 37.738281 109.308594 37.738281 C 114.753906 37.738281 119.003906 33.535156 119.003906 27.828125 C 119.050781 22.121094 114.804688 17.917969 109.359375 17.917969 Z M 108.558594 33.183594 C 106.710938 33.183594 105.261719 32.234375 104.511719 31.132812 L 104.511719 24.425781 C 105.261719 23.421875 106.859375 22.371094 108.558594 22.371094 C 111.757812 22.371094 114.203125 24.375 114.203125 27.777344 C 114.203125 31.179688 111.757812 33.183594 108.558594 33.183594 Z M 95.566406 17.917969 C 97.015625 17.917969 97.765625 18.167969 97.765625 18.167969 L 97.765625 22.621094 C 97.765625 22.621094 93.769531 21.269531 91.269531 24.125 L 91.269531 37.285156 L 86.472656 37.285156 L 86.472656 18.417969 L 90.519531 18.417969 C 90.917969 18.417969 91.21875 18.769531 91.21875 19.117188 L 91.21875 19.921875 C 92.121094 18.867188 94.066406 17.917969 95.566406 17.917969 Z M 45.75 35.535156 C 45.5 34.933594 45.25 34.285156 45 33.734375 C 44.597656 32.832031 44.199219 31.980469 43.851562 31.179688 L 43.800781 31.132812 C 40.351562 23.621094 36.65625 16.015625 32.757812 8.507812 L 32.605469 8.207031 C 32.195312 7.429688 31.796875 6.644531 31.40625 5.855469 C 30.90625 4.953125 30.410156 4.003906 29.609375 3.101562 C 28.011719 1.101562 25.710938 0 23.261719 0 C 20.765625 0 18.515625 1.101562 16.867188 3.003906 C 16.117188 3.902344 15.566406 4.855469 15.066406 5.753906 C 14.679688 6.542969 14.277344 7.328125 13.871094 8.109375 L 13.71875 8.410156 C 9.871094 15.914062 6.125 23.523438 2.675781 31.03125 L 2.625 31.128906 C 2.277344 31.933594 1.875 32.78125 1.476562 33.683594 C 1.226562 34.234375 0.976562 34.832031 0.726562 35.484375 C 0.078125 37.335938 -0.121094 39.085938 0.128906 40.890625 C 0.675781 44.644531 3.175781 47.796875 6.625 49.199219 C 7.921875 49.75 9.273438 50 10.671875 50 C 11.070312 50 11.570312 49.949219 11.972656 49.898438 C 13.621094 49.699219 15.320312 49.148438 16.96875 48.199219 C 19.015625 47.046875 20.964844 45.394531 23.164062 42.992188 C 25.363281 45.394531 27.363281 47.046875 29.359375 48.199219 C 31.011719 49.148438 32.707031 49.699219 34.355469 49.898438 C 34.757812 49.949219 35.257812 50 35.65625 50 C 37.054688 50 38.453125 49.75 39.703125 49.199219 C 43.203125 47.796875 45.648438 44.59375 46.199219 40.890625 C 46.597656 39.140625 46.398438 37.386719 45.75 35.535156 Z M 23.210938 38.136719 C 20.515625 34.734375 18.765625 31.53125 18.164062 28.828125 C 17.917969 27.679688 17.867188 26.675781 18.015625 25.777344 C 18.117188 24.976562 18.414062 24.273438 18.816406 23.671875 C 19.765625 22.324219 21.363281 21.472656 23.214844 21.472656 C 25.0625 21.472656 26.710938 22.273438 27.609375 23.671875 C 28.011719 24.273438 28.308594 24.976562 28.410156 25.777344 C 28.558594 26.675781 28.511719 27.726562 28.261719 28.828125 C 27.660156 31.480469 25.910156 34.683594 23.210938 38.136719 Z M 43.148438 40.488281 C 42.800781 43.09375 41.050781 45.34375 38.601562 46.347656 C 37.402344 46.847656 36.105469 46.996094 34.804688 46.847656 C 33.554688 46.695312 32.304688 46.296875 31.007812 45.546875 C 29.207031 44.542969 27.410156 42.992188 25.3125 40.691406 C 28.609375 36.636719 30.609375 32.933594 31.359375 29.628906 C 31.707031 28.078125 31.757812 26.675781 31.605469 25.375 C 31.40625 24.125 30.957031 22.972656 30.257812 21.972656 C 28.707031 19.71875 26.109375 18.417969 23.210938 18.417969 C 20.316406 18.417969 17.714844 19.769531 16.167969 21.972656 C 15.46875 22.972656 15.015625 24.125 14.816406 25.375 C 14.617188 26.675781 14.667969 28.128906 15.066406 29.628906 C 15.816406 32.933594 17.867188 36.6875 21.113281 40.738281 C 19.0625 43.042969 17.214844 44.59375 15.417969 45.59375 C 14.117188 46.347656 12.867188 46.746094 11.621094 46.898438 C 10.269531 47.046875 8.972656 46.847656 7.820312 46.398438 C 5.375 45.394531 3.625 43.144531 3.273438 40.539062 C 3.125 39.289062 3.222656 38.039062 3.726562 36.636719 C 3.875 36.136719 4.125 35.636719 4.375 35.035156 C 4.722656 34.234375 5.121094 33.382812 5.523438 32.53125 L 5.574219 32.433594 C 9.019531 24.976562 12.71875 17.367188 16.566406 9.960938 L 16.714844 9.660156 C 17.117188 8.910156 17.515625 8.109375 17.914062 7.359375 C 18.316406 6.558594 18.765625 5.804688 19.316406 5.15625 C 20.363281 3.953125 21.761719 3.304688 23.3125 3.304688 C 24.863281 3.304688 26.261719 3.953125 27.308594 5.15625 C 27.859375 5.808594 28.308594 6.558594 28.710938 7.359375 C 29.109375 8.109375 29.507812 8.910156 29.910156 9.660156 L 30.058594 9.960938 C 33.847656 17.398438 37.496094 24.90625 41 32.484375 L 41 32.53125 C 41.402344 33.335938 41.75 34.234375 42.152344 35.035156 C 42.402344 35.636719 42.652344 36.136719 42.800781 36.636719 C 43.199219 37.9375 43.347656 39.1875 43.148438 40.488281 Z M 43.148438 40.488281 "/>
</g>
</svg>
