<?xml version="1.0" encoding="UTF-8"?>
<svg xmlns="http://www.w3.org/2000/svg" xmlns:xlink="http://www.w3.org/1999/xlink" width="146px" height="50px" viewBox="0 0 146 50" version="1.1">
<g id="surface1">
<path style=" stroke:none;fill-rule:nonzero;fill:rgb(0%,0%,0%);fill-opacity:1;" d="M 33.96875 26.566406 C 33.90625 20.242188 39.128906 17.203125 39.363281 17.058594 C 36.425781 12.757812 31.859375 12.164062 30.234375 12.097656 C 26.347656 11.699219 22.648438 14.390625 20.675781 14.390625 C 18.699219 14.390625 15.65625 12.152344 12.433594 12.21875 C 8.195312 12.28125 4.285156 14.6875 2.097656 18.484375 C -2.296875 26.121094 0.980469 37.460938 5.273438 43.667969 C 7.375 46.699219 9.867188 50.121094 13.15625 49.992188 C 16.324219 49.867188 17.519531 47.941406 21.335938 47.941406 C 25.15625 47.941406 26.234375 49.992188 29.578125 49.933594 C 32.980469 49.867188 35.136719 46.832031 37.21875 43.789062 C 39.617188 40.257812 40.609375 36.851562 40.671875 36.671875 C 40.59375 36.640625 34.039062 34.125 33.96875 26.566406 "/>
<path style=" stroke:none;fill-rule:nonzero;fill:rgb(0%,0%,0%);fill-opacity:1;" d="M 27.683594 7.984375 C 29.433594 5.867188 30.605469 2.929688 30.289062 0 C 27.777344 0.101562 24.734375 1.675781 22.933594 3.792969 C 21.320312 5.664062 19.902344 8.65625 20.289062 11.527344 C 23.078125 11.742188 25.945312 10.097656 27.683594 7.984375 M 55.992188 32.785156 L 53.101562 41.5625 L 49.386719 41.5625 L 58.847656 13.671875 L 63.183594 13.671875 L 72.683594 41.5625 L 68.839844 41.5625 L 65.867188 32.785156 Z M 65.125 29.96875 L 62.402344 21.941406 C 61.78125 20.121094 61.371094 18.46875 60.957031 16.851562 L 60.878906 16.851562 C 60.464844 18.503906 60.011719 20.199219 59.476562 21.898438 L 56.753906 29.964844 Z M 75.503906 28.070312 C 75.503906 25.507812 75.425781 23.433594 75.332031 21.53125 L 78.597656 21.53125 L 78.765625 24.96875 L 78.84375 24.96875 C 80.332031 22.527344 82.6875 21.078125 85.953125 21.078125 C 90.789062 21.078125 94.421875 25.175781 94.421875 31.261719 C 94.421875 38.460938 90.042969 42.015625 85.332031 42.015625 C 82.6875 42.015625 80.375 40.855469 79.175781 38.871094 L 79.097656 38.871094 L 79.097656 49.753906 L 75.503906 49.753906 Z M 79.09375 33.40625 C 79.09375 33.949219 79.171875 34.4375 79.261719 34.898438 C 79.921875 37.417969 82.109375 39.160156 84.71875 39.160156 C 88.5625 39.160156 90.796875 36.019531 90.796875 31.421875 C 90.796875 27.40625 88.6875 23.980469 84.84375 23.980469 C 82.367188 23.980469 80.054688 25.761719 79.34375 28.492188 C 79.21875 28.945312 79.097656 29.488281 79.097656 29.980469 Z M 98.179688 28.070312 C 98.179688 25.507812 98.101562 23.433594 98.011719 21.53125 L 101.277344 21.53125 L 101.445312 24.96875 L 101.523438 24.96875 C 103.011719 22.527344 105.363281 21.078125 108.628906 21.078125 C 113.464844 21.078125 117.097656 25.175781 117.097656 31.261719 C 117.097656 38.460938 112.71875 42.015625 108.007812 42.015625 C 105.363281 42.015625 103.050781 40.855469 101.855469 38.871094 L 101.773438 38.871094 L 101.773438 49.753906 L 98.179688 49.753906 Z M 101.773438 33.40625 C 101.773438 33.949219 101.855469 34.4375 101.945312 34.898438 C 102.605469 37.417969 104.792969 39.160156 107.402344 39.160156 C 111.242188 39.160156 113.476562 36.019531 113.476562 31.421875 C 113.476562 27.40625 111.371094 23.980469 107.527344 23.980469 C 105.050781 23.980469 102.738281 25.761719 102.027344 28.492188 C 101.902344 28.945312 101.78125 29.488281 101.78125 29.980469 Z M 120.863281 12.183594 L 124.5 12.183594 L 124.5 41.554688 L 120.863281 41.554688 Z M 131.8125 32.207031 C 131.890625 37.128906 135.035156 39.160156 138.667969 39.160156 C 141.269531 39.160156 142.839844 38.710938 144.203125 38.128906 L 144.824219 40.734375 C 143.546875 41.316406 141.351562 41.976562 138.171875 41.976562 C 132.015625 41.976562 128.335938 37.925781 128.335938 31.882812 C 128.335938 25.839844 131.890625 21.078125 137.714844 21.078125 C 144.246094 21.078125 145.980469 26.828125 145.980469 30.511719 C 145.980469 31.261719 145.902344 31.832031 145.851562 32.207031 Z M 142.472656 29.601562 C 142.515625 27.285156 141.523438 23.683594 137.433594 23.683594 C 133.753906 23.683594 132.144531 27.082031 131.855469 29.601562 Z M 142.472656 29.601562 "/>
</g>
</svg>
