<svg width="120" height="35" xmlns="http://www.w3.org/2000/svg" viewBox="0 0 500 150" style="background: rgba(0, 0, 0, 0);" preserveAspectRatio="none"><defs><filter id="editing-jagged" x="-100%" y="-100%" width="300%" height="300%"><feTurbulence result="turb" baseFrequency="0" numOctaves="1" seed="1"></feTurbulence><feDisplacementMap in="SourceGraphic" in2="turb" scale="10"></feDisplacementMap></filter></defs><g filter="url(#editing-jagged)"><g transform="translate(-0.949971591704525, 98.88500213623047)"><path d="M37.05 0L29.75 0L18.63-19.10L11.26-19.10L11.26 0L5.16 0L5.16-46.70L20.23-46.70L20.23-46.70Q25.53-46.70 29.18-44.89L29.18-44.89L29.18-44.89Q32.83-43.08 34.64-40.00L34.64-40.00L34.64-40.00Q36.45-36.92 36.45-32.96L36.45-32.96L36.45-32.96Q36.45-28.14 33.67-24.46L33.67-24.46L33.67-24.46Q30.89-20.77 25.33-19.56L25.33-19.56L37.05 0ZM11.26-41.88L11.26-23.99L20.23-23.99L20.23-23.99Q25.19-23.99 27.67-26.43L27.67-26.43L27.67-26.43Q30.15-28.88 30.15-32.96L30.15-32.96L30.15-32.96Q30.15-37.19 27.74-39.53L27.74-39.53L27.74-39.53Q25.33-41.88 20.23-41.88L20.23-41.88L11.26-41.88ZM71.02-41.94L51.99-41.94L51.99-25.93L69.01-25.93L69.01-21.24L51.99-21.24L51.99-4.82L71.02-4.82L71.02 0L45.90 0L45.90-46.77L71.02-46.77L71.02-41.94ZM132.39-46.70L138.96-46.70L125.42 0L118.59 0L107.74-37.59L96.55 0L89.71 0.07L76.65-46.70L83.15-46.70L93.33-7.17L104.59-46.70L111.49-46.70L122.14-7.24L132.39-46.70ZM177.01 0L173.26-10.38L152.89-10.38L149.14 0L142.71 0L159.59-46.43L166.63-46.43L183.45 0L177.01 0ZM154.57-15.14L171.59-15.14L163.08-38.93L154.57-15.14ZM222.71 0L215.41 0L204.28-19.10L196.91-19.10L196.91 0L190.82 0L190.82-46.70L205.89-46.70L205.89-46.70Q211.18-46.70 214.84-44.89L214.84-44.89L214.84-44.89Q218.49-43.08 220.30-40.00L220.30-40.00L220.30-40.00Q222.11-36.92 222.11-32.96L222.11-32.96L222.11-32.96Q222.11-28.14 219.32-24.46L219.32-24.46L219.32-24.46Q216.54-20.77 210.98-19.56L210.98-19.56L222.71 0ZM196.91-41.88L196.91-23.99L205.89-23.99L205.89-23.99Q210.85-23.99 213.33-26.43L213.33-26.43L213.33-26.43Q215.81-28.88 215.81-32.96L215.81-32.96L215.81-32.96Q215.81-37.19 213.40-39.53L213.40-39.53L213.40-39.53Q210.98-41.88 205.89-41.88L205.89-41.88L196.91-41.88ZM246.09-46.70L246.09-46.70Q253.73-46.70 259.32-43.85L259.32-43.85L259.32-43.85Q264.92-41.00 267.90-35.71L267.90-35.71L267.90-35.71Q270.88-30.42 270.88-23.25L270.88-23.25L270.88-23.25Q270.88-16.08 267.90-10.82L267.90-10.82L267.90-10.82Q264.92-5.56 259.32-2.78L259.32-2.78L259.32-2.78Q253.73 0 246.09 0L246.09 0L231.55 0L231.55-46.70L246.09-46.70ZM246.09-4.69L246.09-4.69Q255.07-4.69 259.86-9.61L259.86-9.61L259.86-9.61Q264.65-14.54 264.65-23.25L264.65-23.25L264.65-23.25Q264.65-31.96 259.86-36.85L259.86-36.85L259.86-36.85Q255.07-41.74 246.09-41.74L246.09-41.74L237.65-41.74L237.65-4.69L246.09-4.69ZM293.73 0.47L293.73 0.47Q289.11 0.47 285.45-1.17L285.45-1.17L285.45-1.17Q281.80-2.81 279.73-5.73L279.73-5.73L279.73-5.73Q277.65-8.64 277.58-12.46L277.58-12.46L284.08-12.46L284.08-12.46Q284.42-9.11 286.83-6.80L286.83-6.80L286.83-6.80Q289.24-4.49 293.73-4.49L293.73-4.49L293.73-4.49Q298.02-4.49 300.56-6.73L300.56-6.73L300.56-6.73Q303.11-8.98 303.11-12.46L303.11-12.46L303.11-12.46Q303.11-15.14 301.63-16.82L301.63-16.82L301.63-16.82Q300.16-18.49 297.95-19.36L297.95-19.36L297.95-19.36Q295.74-20.23 291.99-21.24L291.99-21.24L291.99-21.24Q287.36-22.45 284.58-23.65L284.58-23.65L284.58-23.65Q281.80-24.86 279.83-27.44L279.83-27.44L279.83-27.44Q277.85-30.02 277.85-34.37L277.85-34.37L277.85-34.37Q277.85-38.19 279.79-41.14L279.79-41.14L279.79-41.14Q281.74-44.09 285.25-45.69L285.25-45.69L285.25-45.69Q288.77-47.30 293.33-47.30L293.33-47.30L293.33-47.30Q299.89-47.30 304.08-44.02L304.08-44.02L304.08-44.02Q308.27-40.74 308.80-35.31L308.80-35.31L302.10-35.31L302.10-35.31Q301.77-38.19 299.32-40.23L299.32-40.23L299.32-40.23Q296.88-42.28 292.72-42.28L292.72-42.28L292.72-42.28Q288.90-42.28 286.49-40.27L286.49-40.27L286.49-40.27Q284.08-38.26 284.08-34.57L284.08-34.57L284.08-34.57Q284.08-32.03 285.52-30.42L285.52-30.42L285.52-30.42Q286.96-28.81 289.07-27.97L289.07-27.97L289.07-27.97Q291.18-27.14 295.00-26.06L295.00-26.06L295.00-26.06Q299.62-24.79 302.44-23.55L302.44-23.55L302.44-23.55Q305.25-22.31 307.26-19.73L307.26-19.73L307.26-19.73Q309.27-17.15 309.27-12.73L309.27-12.73L309.27-12.73Q309.27-9.31 307.46-6.30L307.46-6.30L307.46-6.30Q305.65-3.28 302.10-1.41L302.10-1.41L302.10-1.41Q298.55 0.47 293.73 0.47L293.73 0.47ZM335.94-23.38L335.94-23.38Q335.94-30.22 339.02-35.68L339.02-35.68L339.02-35.68Q342.10-41.14 347.43-44.22L347.43-44.22L347.43-44.22Q352.76-47.30 359.25-47.30L359.25-47.30L359.25-47.30Q366.89-47.30 372.59-43.62L372.59-43.62L372.59-43.62Q378.28-39.93 380.90-33.16L380.90-33.16L373.59-33.16L373.59-33.16Q371.65-37.25 368.00-39.50L368.00-39.50L368.00-39.50Q364.35-41.74 359.25-41.74L359.25-41.74L359.25-41.74Q354.36-41.74 350.48-39.50L350.48-39.50L350.48-39.50Q346.59-37.25 344.38-33.06L344.38-33.06L344.38-33.06Q342.17-28.88 342.17-23.38L342.17-23.38L342.17-23.38Q342.17-17.89 344.38-13.74L344.38-13.74L344.38-13.74Q346.59-9.58 350.48-7.34L350.48-7.34L350.48-7.34Q354.36-5.09 359.25-5.09L359.25-5.09L359.25-5.09Q364.35-5.09 368.00-7.30L368.00-7.30L368.00-7.30Q371.65-9.51 373.59-13.60L373.59-13.60L380.90-13.60L380.90-13.60Q378.28-6.90 372.59-3.25L372.59-3.25L372.59-3.25Q366.89 0.40 359.25 0.40L359.25 0.40L359.25 0.40Q352.76 0.40 347.43-2.65L347.43-2.65L347.43-2.65Q342.10-5.70 339.02-11.12L339.02-11.12L339.02-11.12Q335.94-16.55 335.94-23.38L335.94-23.38ZM396.04-46.70L396.04-4.69L412.39-4.69L412.39 0L389.94 0L389.94-46.70L396.04-46.70ZM418.75-46.70L424.85-46.70L424.85-17.22L424.85-17.22Q424.85-11.06 427.93-8.01L427.93-8.01L427.93-8.01Q431.01-4.96 436.37-4.96L436.37-4.96L436.37-4.96Q441.73-4.96 444.78-8.01L444.78-8.01L444.78-8.01Q447.83-11.06 447.83-17.22L447.83-17.22L447.83-46.70L453.93-46.70L453.93-17.22L453.93-17.22Q453.93-11.39 451.58-7.40L451.58-7.40L451.58-7.40Q449.24-3.42 445.25-1.47L445.25-1.47L445.25-1.47Q441.26 0.47 436.30 0.47L436.30 0.47L436.30 0.47Q431.35 0.47 427.36-1.47L427.36-1.47L427.36-1.47Q423.37-3.42 421.06-7.40L421.06-7.40L421.06-7.40Q418.75-11.39 418.75-17.22L418.75-17.22L418.75-46.70ZM487.49-24.05L487.49-24.05Q490.04-23.65 492.15-21.98L492.15-21.98L492.15-21.98Q494.26-20.30 495.50-17.82L495.50-17.82L495.50-17.82Q496.74-15.34 496.74-12.53L496.74-12.53L496.74-12.53Q496.74-8.98 494.93-6.13L494.93-6.13L494.93-6.13Q493.12-3.28 489.67-1.64L489.67-1.64L489.67-1.64Q486.22 0 481.53 0L481.53 0L464.11 0L464.11-46.70L480.86-46.70L480.86-46.70Q485.62-46.70 488.97-45.12L488.97-45.12L488.97-45.12Q492.32-43.55 493.99-40.87L493.99-40.87L493.99-40.87Q495.67-38.19 495.67-34.84L495.67-34.84L495.67-34.84Q495.67-30.69 493.42-27.97L493.42-27.97L493.42-27.97Q491.18-25.26 487.49-24.05L487.49-24.05ZM470.21-41.88L470.21-26.40L480.46-26.40L480.46-26.40Q484.68-26.40 487.06-28.44L487.06-28.44L487.06-28.44Q489.44-30.49 489.44-34.10L489.44-34.10L489.44-34.10Q489.44-37.72 487.09-39.80L487.09-39.80L487.09-39.80Q484.75-41.88 480.32-41.88L480.32-41.88L470.21-41.88ZM480.99-4.82L480.99-4.82Q485.48-4.82 488.06-7.04L488.06-7.04L488.06-7.04Q490.64-9.25 490.64-13.13L490.64-13.13L490.64-13.13Q490.64-17.02 487.96-19.30L487.96-19.30L487.96-19.30Q485.28-21.57 480.79-21.57L480.79-21.57L470.21-21.57L470.21-4.82L480.99-4.82Z" fill="#444"></path></g></g><style>text {
  font-size: 64px;
  font-family: Arial Black;
  dominant-baseline: central;
  text-anchor: middle;
}</style></svg>

