<?xml version="1.0" encoding="UTF-8"?>
<svg xmlns="http://www.w3.org/2000/svg" xmlns:xlink="http://www.w3.org/1999/xlink" width="93px" height="50px" viewBox="0 0 93 50" version="1.1">
<g id="surface1">
<path style=" stroke:none;fill-rule:nonzero;fill:rgb(0%,0%,0%);fill-opacity:1;" d="M 49.925781 2.261719 C 49.625 2.308594 49.332031 3.429688 48.746094 4.011719 C 48.320312 4.433594 47.785156 4.40625 47.5 4.925781 C 47.390625 5.121094 47.425781 5.453125 47.304688 5.773438 C 47.066406 6.410156 46.222656 6.46875 46.222656 7.164062 C 46.222656 7.914062 46.925781 8.054688 47.535156 8.589844 C 48.011719 9.015625 48.058594 9.3125 48.636719 9.519531 C 49.128906 9.6875 49.863281 9.136719 50.523438 9.335938 C 51.0625 9.496094 51.582031 9.613281 51.703125 10.171875 C 51.8125 10.6875 51.699219 11.488281 51.039062 11.394531 C 50.820312 11.371094 49.859375 11.046875 48.679688 11.171875 C 47.253906 11.332031 45.632812 11.800781 45.472656 13.390625 C 45.382812 14.28125 46.480469 15.332031 47.539062 15.121094 C 48.273438 14.976562 47.925781 14.109375 48.328125 13.6875 C 48.847656 13.148438 51.8125 15.570312 54.566406 15.570312 C 55.726562 15.570312 56.589844 15.277344 57.445312 14.375 C 57.527344 14.304688 57.625 14.160156 57.75 14.148438 C 57.863281 14.160156 58.070312 14.273438 58.136719 14.324219 C 60.355469 16.113281 62.03125 19.703125 70.1875 19.746094 C 71.332031 19.753906 72.640625 20.300781 73.707031 21.28125 C 74.65625 22.164062 75.214844 23.535156 75.753906 24.929688 C 76.570312 27.019531 78.03125 29.054688 80.25 31.320312 C 80.371094 31.441406 82.195312 32.863281 82.34375 32.972656 C 82.367188 32.988281 82.5 33.308594 82.453125 33.488281 C 82.398438 34.84375 82.203125 38.792969 85.132812 38.972656 C 85.851562 39.007812 85.664062 38.5 85.664062 38.152344 C 85.660156 37.464844 85.535156 36.78125 85.898438 36.078125 C 86.390625 35.113281 84.851562 34.664062 84.894531 32.574219 C 84.925781 31.011719 83.621094 31.277344 82.957031 30.089844 C 82.578125 29.402344 82.238281 29.035156 82.261719 28.191406 C 82.410156 23.453125 81.257812 20.335938 80.683594 19.570312 C 80.234375 18.992188 79.863281 18.765625 80.273438 18.496094 C 82.71875 16.875 83.273438 15.367188 83.273438 15.367188 C 84.574219 12.296875 85.746094 9.492188 87.355469 8.257812 C 87.683594 8.003906 88.515625 7.378906 89.027344 7.132812 C 90.53125 6.421875 91.324219 5.988281 91.761719 5.5625 C 92.453125 4.886719 93 3.472656 92.335938 2.617188 C 91.511719 1.5625 90.085938 2.402344 89.457031 2.773438 C 84.960938 5.453125 84.296875 10.179688 82.738281 12.894531 C 81.496094 15.0625 79.476562 16.65625 77.667969 16.785156 C 76.3125 16.886719 74.855469 16.613281 73.398438 15.972656 C 69.863281 14.417969 67.929688 12.40625 67.472656 12.050781 C 66.523438 11.316406 59.148438 4.046875 53.171875 3.75 C 53.171875 3.75 52.433594 2.261719 52.246094 2.238281 C 51.808594 2.179688 51.359375 3.128906 51.039062 3.238281 C 50.738281 3.339844 50.230469 2.210938 49.925781 2.261719 M 23.625 45.632812 C 23.0625 45.621094 22.582031 45.15625 22.582031 44.582031 L 22.585938 25.875 L 16.441406 25.875 L 16.441406 46.5 C 16.441406 47.507812 17.257812 48.332031 18.257812 48.332031 L 28.996094 48.332031 C 30.003906 48.332031 30.808594 47.507812 30.808594 46.5 L 30.808594 25.875 L 24.671875 25.875 L 24.667969 44.582031 C 24.667969 45.15625 24.1875 45.621094 23.625 45.632812 M 44.191406 25.875 L 34.894531 25.875 C 33.792969 25.875 32.898438 26.773438 32.898438 27.890625 L 32.898438 48.332031 L 39.046875 48.332031 L 39.046875 29.582031 C 39.050781 29.003906 39.511719 28.550781 40.085938 28.550781 C 40.660156 28.550781 41.117188 28.996094 41.132812 29.566406 L 41.132812 48.332031 L 47.253906 48.332031 L 47.253906 29.5625 C 47.261719 28.996094 47.722656 28.550781 48.296875 28.550781 C 48.863281 28.550781 49.332031 29.003906 49.335938 29.582031 L 49.335938 48.332031 L 55.484375 48.332031 L 55.484375 27.890625 C 55.484375 26.773438 54.589844 25.875 53.488281 25.875 Z M 8.222656 29.621094 C 8.226562 28.996094 7.71875 28.550781 7.183594 28.550781 L 6.140625 28.550781 L 6.140625 39.910156 L 7.183594 39.910156 C 7.726562 39.910156 8.226562 39.476562 8.222656 38.855469 Z M 12.34375 42.691406 L 6.140625 42.691406 L 6.140625 48.332031 L 0 48.332031 L 0 25.875 L 12.382812 25.875 C 13.492188 25.875 14.359375 26.78125 14.359375 27.898438 L 14.359375 40.667969 C 14.359375 41.789062 13.460938 42.691406 12.34375 42.691406 M 76.554688 43.3125 C 75.320312 43.3125 74.285156 44.382812 74.285156 45.679688 C 74.285156 46.980469 75.320312 48.042969 76.59375 48.042969 C 77.855469 48.042969 78.878906 46.980469 78.878906 45.679688 C 78.878906 44.378906 77.855469 43.3125 76.59375 43.3125 Z M 79.320312 45.671875 C 79.320312 47.195312 78.101562 48.4375 76.59375 48.4375 C 75.070312 48.4375 73.847656 47.207031 73.847656 45.671875 C 73.847656 44.167969 75.070312 42.910156 76.546875 42.910156 C 78.101562 42.910156 79.320312 44.128906 79.320312 45.671875 "/>
<path style=" stroke:none;fill-rule:nonzero;fill:rgb(0%,0%,0%);fill-opacity:1;" d="M 76.308594 45.496094 C 76.738281 45.496094 76.960938 45.34375 76.960938 45.039062 C 76.960938 44.769531 76.742188 44.628906 76.328125 44.628906 L 76.207031 44.628906 L 76.207031 45.496094 Z M 77.882812 47.273438 L 77.148438 47.273438 L 76.207031 46.011719 L 76.207031 47.273438 L 75.605469 47.273438 L 75.605469 44.089844 L 76.238281 44.089844 C 77.09375 44.089844 77.546875 44.414062 77.546875 45.03125 C 77.546875 45.445312 77.277344 45.8125 76.902344 45.921875 L 76.859375 45.941406 Z M 65.792969 39.914062 L 65.792969 29.574219 C 65.777344 29 65.320312 28.5625 64.746094 28.5625 C 64.179688 28.5625 63.710938 29.019531 63.707031 29.589844 L 63.707031 39.914062 Z M 65.792969 48.332031 L 65.792969 42.695312 L 63.707031 42.695312 L 63.707031 48.332031 L 57.570312 48.332031 L 57.570312 27.890625 C 57.570312 26.773438 58.464844 25.875 59.566406 25.875 L 69.933594 25.875 C 71.035156 25.875 71.933594 26.773438 71.933594 27.890625 L 71.933594 48.332031 Z M 65.792969 48.332031 "/>
</g>
</svg>
