<svg id="SvgjsSvg1147" width="288" height="288" xmlns="http://www.w3.org/2000/svg" version="1.1" xmlns:xlink="http://www.w3.org/1999/xlink" xmlns:svgjs="http://svgjs.com/svgjs"><defs id="SvgjsDefs1148"></defs><g id="SvgjsG1149"><svg xmlns="http://www.w3.org/2000/svg" viewBox="0 0 32 32" width="288" height="288"><path d="M16 21c5.523 0 10-4.477 10-10S21.523 1 16 1 6 5.477 6 11s4.477 10 10 10zm0-18c4.411 0 8 3.589 8 8s-3.589 8-8 8-8-3.589-8-8 3.589-8 8-8zm8 20H8a4 4 0 0 0-4 4v4h24v-4a4 4 0 0 0-4-4z" fill="#ffffff" class="color000 svgShape"></path><path d="m21.207 8.707-1.414-1.414-5.293 5.293-2.293-2.293-1.414 1.414 3.707 3.707z" fill="#ffffff" class="color000 svgShape"></path></svg></g></svg>