<svg id="SvgjsSvg1106" width="288" height="288" xmlns="http://www.w3.org/2000/svg" version="1.1" xmlns:xlink="http://www.w3.org/1999/xlink" xmlns:svgjs="http://svgjs.com/svgjs"><defs id="SvgjsDefs1107"></defs><g id="SvgjsG1108"><svg xmlns="http://www.w3.org/2000/svg" enable-background="new 0 0 32 32" viewBox="0 0 32 32" width="288" height="288"><path d="M25 21H13c-.638 0-1.36-.563-1.515-1.183L7.455 3.698C7.077 2.186 5.56 1 4 1H2C1.448 1 1 1.447 1 2s.448 1 1 1h2c.638 0 1.36.563 1.515 1.183l4.03 16.119C9.923 21.814 11.44 23 13 23h12c.552 0 1-.447 1-1S25.552 21 25 21zM13 25c-1.654 0-3 1.346-3 3s1.346 3 3 3 3-1.346 3-3S14.654 25 13 25zM13 29c-.551 0-1-.448-1-1s.449-1 1-1 1 .448 1 1S13.551 29 13 29zM23 25c-1.654 0-3 1.346-3 3s1.346 3 3 3 3-1.346 3-3S24.654 25 23 25zM23 29c-.551 0-1-.448-1-1s.449-1 1-1 1 .448 1 1S23.551 29 23 29z" fill="#ffffff" class="color000 svgShape"></path><path d="M30.038,5.973C29.592,5.354,28.85,5,28,5h-6c-0.552,0-1,0.447-1,1s0.448,1,1,1h6c0.196,0,0.352,0.053,0.416,0.142
		s0.065,0.254,0.003,0.439l-2.735,8.205C25.472,16.422,24.669,17,24,17H14c-0.552,0-1,0.447-1,1s0.448,1,1,1h10
		c1.526,0,3.099-1.134,3.581-2.581l2.735-8.205C30.585,7.407,30.483,6.59,30.038,5.973z" fill="#ffffff" class="color000 svgShape"></path><path d="M15.293 9.293c-.391.391-.391 1.023 0 1.414l3 3C18.488 13.902 18.744 14 19 14s.512-.098.707-.293l3-3c.391-.391.391-1.023 0-1.414s-1.023-.391-1.414 0L20 10.586V6c0-.553-.448-1-1-1s-1 .447-1 1v4.586l-1.293-1.293C16.316 8.902 15.684 8.902 15.293 9.293zM11 7h5c.552 0 1-.447 1-1s-.448-1-1-1h-5c-.552 0-1 .447-1 1S10.448 7 11 7z" fill="#ffffff" class="color000 svgShape"></path></svg></g></svg>