<svg id="SvgjsSvg1045" width="288" height="288" xmlns="http://www.w3.org/2000/svg" version="1.1" xmlns:xlink="http://www.w3.org/1999/xlink" xmlns:svgjs="http://svgjs.com/svgjs"><defs id="SvgjsDefs1046"></defs><g id="SvgjsG1047"><svg xmlns="http://www.w3.org/2000/svg" enable-background="new 0 0 32 32" viewBox="0 0 32 32" width="288" height="288"><path fill="#ffffff" d="M22.51,9.489c0.196,0.196,0.512,0.195,0.708,0l1.715-1.714c0.195-0.195,0.195-0.512,0-0.707
						s-0.512-0.195-0.707,0L22.51,8.782C22.314,8.978,22.315,9.294,22.51,9.489z" class="color263238 svgShape"></path><path fill="#ffffff" d="M26 8c-1.103 0-2-.896-2-2 0-1.103.897-2 2-2s2 .897 2 2C28 7.104 27.103 8 26 8zM26 5c-.552 0-1 .448-1 1 0 .551.448 1 1 1s1-.449 1-1C27 5.448 26.552 5 26 5zM29 14c1.104 0 2 .897 2 2s-.896 2-2 2-2-.897-2-2S27.896 14 29 14zM29 15c-.551 0-1 .448-1 1s.449 1 1 1 1-.449 1-1C30 15.448 29.551 15 29 15z" class="color263238 svgShape"></path><path fill="#ffffff" d="M25 16c0 .276.224.5.5.5H27c.276 0 .5-.224.5-.5s-.224-.5-.5-.5h-1.5C25.224 15.5 25 15.724 25 16zM5 16c0 1.103-.896 2-2 2s-2-.896-2-2c0-1.103.896-2 2-2S5 14.897 5 16zM2 16c0 .552.449 1 1 1s1-.449 1-1c0-.552-.449-1-1-1S2 15.448 2 16z" class="color263238 svgShape"></path><path fill="#ffffff" d="M6.5 16c0 .276-.224.5-.5.5H5c-.276 0-.5-.224-.5-.5s.224-.5.5-.5h1C6.276 15.5 6.5 15.724 6.5 16zM22.546 22.547c.195-.195.512-.195.707 0l1.715 1.714c.195.195.195.512 0 .707s-.512.195-.707 0l-1.715-1.715C22.351 23.059 22.351 22.742 22.546 22.547z" class="color263238 svgShape"></path><path fill="#ffffff" d="M26 28c-1.103 0-2-.896-2-2 0-1.103.897-2 2-2s2 .897 2 2C28 27.104 27.103 28 26 28zM26 25c-.551 0-1 .448-1 1 0 .551.449 1 1 1s1-.449 1-1C27 25.448 26.551 25 26 25zM9.49 22.511c.194.195.195.512 0 .707l-1.716 1.714c-.195.195-.512.195-.707 0s-.195-.512 0-.707l1.716-1.714C8.979 22.315 9.294 22.314 9.49 22.511z" class="color263238 svgShape"></path><path fill="#ffffff" d="M6 28c-1.103 0-2-.896-2-2 0-1.103.897-2 2-2s2 .897 2 2C8 27.104 7.103 28 6 28zM6 25c-.552 0-1 .448-1 1 0 .551.448 1 1 1s1-.449 1-1C7 25.448 6.552 25 6 25zM9.489 9.489c-.195.196-.512.196-.707 0L7.067 7.775c-.195-.195-.195-.512 0-.707s.512-.195.707 0l1.715 1.715C9.685 8.979 9.685 9.294 9.489 9.489z" class="color263238 svgShape"></path><path fill="#ffffff" d="M6 8C4.897 8 4 7.104 4 6c0-1.103.897-2 2-2s2 .897 2 2C8 7.104 7.103 8 6 8zM6 5C5.448 5 5 5.448 5 6c0 .551.448 1 1 1s1-.449 1-1C7 5.448 6.552 5 6 5zM16 27c1.103 0 2 .897 2 2 0 1.104-.897 2-2 2s-2-.896-2-2C14 27.897 14.897 27 16 27zM16 30c.552 0 1-.449 1-1 0-.552-.448-1-1-1s-1 .448-1 1C15 29.551 15.448 30 16 30z" class="color263238 svgShape"></path><path fill="#ffffff" d="M16,25c0.276,0,0.5,0.224,0.5,0.5V27c0,0.276-0.224,0.5-0.5,0.5s-0.5-0.224-0.5-0.5v-1.5
						C15.5,25.224,15.724,25,16,25z" class="color263238 svgShape"></path><g fill="#000000" class="color000 svgShape"><path fill="#ffffff" d="M16,5c-1.103,0-2-0.896-2-2c0-1.103,0.897-2,2-2s2,0.897,2,2C18,4.104,17.103,5,16,5z M16,2
							c-0.552,0-1,0.448-1,1c0,0.551,0.448,1,1,1s1-0.449,1-1C17,2.448,16.552,2,16,2z" class="color263238 svgShape"></path><path fill="#ffffff" d="M16,7c-0.276,0-0.5-0.224-0.5-0.5V5c0-0.276,0.224-0.5,0.5-0.5s0.5,0.224,0.5,0.5v1.5
						C16.5,6.776,16.276,7,16,7z" class="color263238 svgShape"></path></g><g fill="#000000" class="color000 svgShape"><path fill="#ffffff" d="M16,24c-4.411,0-8-3.589-8-8s3.589-8,8-8s8,3.589,8,8S20.411,24,16,24z M16,9c-3.859,0-7,3.141-7,7
						s3.141,7,7,7s7-3.141,7-7S19.859,9,16,9z" class="color263238 svgShape"></path><path fill="#ffffff" d="M10.783 21.822c-.185 0-.361-.103-.449-.279-.121-.248-.02-.548.229-.67 3.422-1.68 7.492-1.82 11.02-.382.256.104.379.396.275.651-.104.256-.398.378-.652.274-3.266-1.329-7.033-1.2-10.201.354C10.933 21.806 10.857 21.822 10.783 21.822zM16.5 12.5c-1.433 0-2.844-.224-4.193-.664-.262-.086-.406-.368-.32-.631s.366-.405.631-.32c2.723.89 5.749.808 8.416-.233.256-.102.547.027.647.284s-.026.547-.284.647C19.837 12.191 18.189 12.5 16.5 12.5z" class="color263238 svgShape"></path><path fill="#ffffff" d="M15.999,23.981c-0.097,0-0.194-0.028-0.278-0.085C13.078,22.126,11.5,19.174,11.5,16
						c0-3.176,1.578-6.128,4.221-7.896c0.169-0.113,0.388-0.113,0.557,0C18.922,9.873,20.5,12.825,20.5,16
						c0,3.174-1.578,6.126-4.223,7.896C16.193,23.953,16.096,23.981,15.999,23.981z M15.999,9.128
						C13.802,10.729,12.5,13.272,12.5,16c0,2.727,1.302,5.271,3.499,6.872C18.197,21.271,19.5,18.727,19.5,16
						C19.5,13.272,18.197,10.729,15.999,9.128z" class="color263238 svgShape"></path><path fill="#ffffff" d="M23.083,16.541H10.521c-0.276,0-0.5-0.224-0.5-0.5s0.224-0.5,0.5-0.5h12.562c0.276,0,0.5,0.224,0.5,0.5
					S23.359,16.541,23.083,16.541z" class="color263238 svgShape"></path></g><g fill="#000000" class="color000 svgShape"><circle cx="20.172" cy="3.161" r=".5" fill="#ffffff" class="color263238 svgShape"></circle><circle cx="11.828" cy="28.839" r=".5" fill="#ffffff" class="color263238 svgShape"></circle><circle cx="22.129" cy="3.971" r=".5" fill="#ffffff" class="color263238 svgShape"></circle><circle cx="9.871" cy="28.029" r=".5" fill="#ffffff" class="color263238 svgShape"></circle><circle cx="28.029" cy="9.871" r=".5" fill="#ffffff" class="color263238 svgShape"></circle><circle cx="3.971" cy="22.129" r=".5" fill="#ffffff" class="color263238 svgShape"></circle><circle cx="28.839" cy="11.828" r=".5" fill="#ffffff" class="color263238 svgShape"></circle><circle cx="3.161" cy="20.172" r=".5" fill="#ffffff" class="color263238 svgShape"></circle><circle cx="28.839" cy="20.172" r=".5" fill="#ffffff" class="color263238 svgShape"></circle><circle cx="3.161" cy="11.828" r=".5" fill="#ffffff" class="color263238 svgShape"></circle><circle cx="28.029" cy="22.129" r=".5" fill="#ffffff" class="color263238 svgShape"></circle><circle cx="3.971" cy="9.871" r=".5" fill="#ffffff" class="color263238 svgShape"></circle><g fill="#000000" class="color000 svgShape"><circle cx="22.129" cy="28.029" r=".5" fill="#ffffff" class="color263238 svgShape"></circle><circle cx="9.871" cy="3.971" r=".5" fill="#ffffff" class="color263238 svgShape"></circle></g><g fill="#000000" class="color000 svgShape"><circle cx="20.172" cy="28.839" r=".5" fill="#ffffff" class="color263238 svgShape"></circle><circle cx="11.828" cy="3.161" r=".5" fill="#ffffff" class="color263238 svgShape"></circle></g></g></svg></g></svg>