<svg id="SvgjsSvg1036" width="288" height="288" xmlns="http://www.w3.org/2000/svg" version="1.1" xmlns:xlink="http://www.w3.org/1999/xlink" xmlns:svgjs="http://svgjs.com/svgjs"><defs id="SvgjsDefs1037"></defs><g id="SvgjsG1038"><svg xmlns="http://www.w3.org/2000/svg" viewBox="0 0 16 16" width="288" height="288"><path d="M8.5 1C4.364 1 1 4.364 1 8.5S4.364 16 8.5 16 16 12.636 16 8.5 12.636 1 8.5 1zm0 1C12.096 2 15 4.904 15 8.5S12.096 15 8.5 15a6.492 6.492 0 0 1-6.467-7.166A6.492 6.492 0 0 1 8.5 2zm-.008 2.494A.5.5 0 0 0 8 5v3H5a.5.5 0 1 0 0 1h3v3a.5.5 0 1 0 1 0V9h3a.5.5 0 1 0 0-1H9V5a.5.5 0 0 0-.508-.506z" color="#000" font-family="sans-serif" font-weight="400" overflow="visible" style="line-height:normal;text-indent:0;text-align:start;text-decoration-line:none;text-decoration-style:solid;text-decoration-color:#000;text-transform:none;block-progression:tb;white-space:normal;isolation:auto;mix-blend-mode:normal;solid-color:#000;solid-opacity:1" fill="#ffffff" class="color000 svgShape"></path></svg></g></svg>