<svg id="SvgjsSvg1053" width="288" height="288" xmlns="http://www.w3.org/2000/svg" version="1.1" xmlns:xlink="http://www.w3.org/1999/xlink" xmlns:svgjs="http://svgjs.com/svgjs"><defs id="SvgjsDefs1054"></defs><g id="SvgjsG1055"><svg xmlns="http://www.w3.org/2000/svg" data-name="Layer 1" viewBox="0 0 512 512" width="288" height="288"><circle cx="203" cy="203" r="23" fill="#ffffff" class="color000 svgShape"></circle><circle cx="309" cy="309" r="23" fill="#ffffff" class="color000 svgShape"></circle><path d="M372.2,88.4a9.97,9.97,0,0,1-11.1.1l-50-33L261.6,88.4a10.159,10.159,0,0,1-11.1,0L201,55.5l-50,33a9.97,9.97,0,0,1-11.1-.1l-38.2-26V458.5H410.3V62.4ZM160,203a43,43,0,1,1,43,43A43.062,43.062,0,0,1,160,203Zm26.9,138.1a10.527,10.527,0,0,1-6.8-2.6,9.969,9.969,0,0,1-.6-14.1L321.4,169.5A9.979,9.979,0,1,1,336.1,183L194.2,337.9A9.855,9.855,0,0,1,186.9,341.1ZM309,352a43,43,0,1,1,43-43A43.062,43.062,0,0,1,309,352Z" fill="#ffffff" class="color000 svgShape"></path></svg></g></svg>