<svg id="SvgjsSvg1085" width="288" height="288" xmlns="http://www.w3.org/2000/svg" version="1.1" xmlns:xlink="http://www.w3.org/1999/xlink" xmlns:svgjs="http://svgjs.com/svgjs"><defs id="SvgjsDefs1086"></defs><g id="SvgjsG1087"><svg xmlns="http://www.w3.org/2000/svg" data-name="Layer 1" viewBox="0 0 512 512" width="288" height="288"><path d="M425,34.7a10.038,10.038,0,0,0-10.3.6L366.5,68.1l-50-32.9a9.991,9.991,0,0,0-11,0L256,68.1,206.6,35.2a9.992,9.992,0,0,0-11,0l-50,32.9L97.3,35.2A10.038,10.038,0,0,0,87,34.6a9.84,9.84,0,0,0-5.3,8.8v425a10.029,10.029,0,0,0,10,10H420.3a10.029,10.029,0,0,0,10-10V43.4A9.8,9.8,0,0,0,425,34.7ZM410.3,458.5H101.7V62.4l38.2,26a9.97,9.97,0,0,0,11.1.1l50-33,49.5,32.9a10.159,10.159,0,0,0,11.1,0L311,55.5l50,33a9.97,9.97,0,0,0,11.1-.1l38.2-26V458.5Z" fill="#ffffff" class="color000 svgShape"></path><path d="M337 388H175a10 10 0 0 0 0 20H337a10 10 0 0 0 0-20zM253.5 321.5A26.5 26.5 0 1 0 227 348 26.546 26.546 0 0 0 253.5 321.5zm-33 0A6.5 6.5 0 1 1 227 328 6.487 6.487 0 0 1 220.5 321.5zM339.9 321.5A26.5 26.5 0 1 0 313.4 348 26.546 26.546 0 0 0 339.9 321.5zm-33 0a6.5 6.5 0 1 1 6.5 6.5A6.487 6.487 0 0 1 306.9 321.5zM341.3 181.8H209.5l-2.1-12.7A30.086 30.086 0 0 0 177.6 144h-6.9a10 10 0 0 0 0 20h6.9a10.29 10.29 0 0 1 10.1 8.5L203.9 268a30.086 30.086 0 0 0 29.8 25.1h92.2a10 10 0 0 0 0-20H233.7a10.29 10.29 0 0 1-10.1-8.5l-.1-.8H307a30.159 30.159 0 0 0 28.8-21.1l15.1-47.9a9.779 9.779 0 0 0-1.5-8.9A10.279 10.279 0 0 0 341.3 181.8zm-24.6 54.9a10.081 10.081 0 0 1-9.7 7.1H220.1l-7.1-42H327.7z" fill="#ffffff" class="color000 svgShape"></path></svg></g></svg>