<svg xmlns="http://www.w3.org/2000/svg" viewBox="0 0 64 64" id="dollar-coins"><path fill="#ff9909" d="M32 2a30 30 0 1 0 30 30A30 30 0 0 0 32 2Zm0 54.41A24.41 24.41 0 1 1 56.41 32 24.41 24.41 0 0 1 32 56.41Z"></path><circle cx="32" cy="32" r="24.41" fill="#fbcb00" transform="rotate(-22.5 31.996 32)"></circle><path fill="#e6e7e8" d="M36.56 30h-9.12a2 2 0 0 1-2-2v-4.82a2 2 0 0 1 2-2h14.5v-4H34v-3.64h-4v3.68h-2.56a6 6 0 0 0-6 6V28a6 6 0 0 0 6 6h9.12a2 2 0 0 1 2 2v4.86a2 2 0 0 1-2 2h-14.5v4H30v3.68h4v-3.76h2.56a6 6 0 0 0 6-6V36a6 6 0 0 0-6-6Z"></path></svg>