<svg id="SvgjsSvg1076" width="288" height="288" xmlns="http://www.w3.org/2000/svg" version="1.1" xmlns:xlink="http://www.w3.org/1999/xlink" xmlns:svgjs="http://svgjs.com/svgjs"><defs id="SvgjsDefs1077"></defs><g id="SvgjsG1078"><svg xmlns="http://www.w3.org/2000/svg" data-name="Layer 1" viewBox="0 0 64 64" width="288" height="288"><path fill="none" stroke="#ffffff" stroke-linecap="round" stroke-linejoin="round" stroke-width="3" d="M44.14 17.16a9.4 9.4 0 0 0 1.13-.68c2.92-2.05 3.82-5.82 2-8.4s-5.66-3-8.58-.93-4.42 5.73-6.05 10zM8.7 30.46H55.31a0 0 0 0 1 0 0v23.7a4 4 0 0 1-4 4H12.7a4 4 0 0 1-4-4V30.46A0 0 0 0 1 8.7 30.46z" class="colorStroke222 svgStroke"></path><rect width="11.7" height="27.7" x="26.15" y="30.46" fill="none" stroke="#ffffff" stroke-linecap="round" stroke-linejoin="round" stroke-width="3" class="colorStroke222 svgStroke"></rect><path fill="none" stroke="#ffffff" stroke-linecap="round" stroke-linejoin="round" stroke-width="3" d="M19.86,17.16a8.57,8.57,0,0,1-1.12-.68c-2.92-2.05-3.83-5.82-2-8.4s5.66-3,8.59-.93,4.41,5.73,6.05,10Z" class="colorStroke222 svgStroke"></path><rect width="51" height="13.3" x="6.5" y="17.16" fill="none" stroke="#ffffff" stroke-linecap="round" stroke-linejoin="round" stroke-width="3" rx="3" class="colorStroke222 svgStroke"></rect><rect width="13.83" height="13.3" x="25.09" y="17.16" fill="none" stroke="#ffffff" stroke-linecap="round" stroke-linejoin="round" stroke-width="3" class="colorStroke222 svgStroke"></rect></svg></g></svg>