<svg id="SvgjsSvg1044" width="288" height="288" xmlns="http://www.w3.org/2000/svg" version="1.1" xmlns:xlink="http://www.w3.org/1999/xlink" xmlns:svgjs="http://svgjs.com/svgjs"><defs id="SvgjsDefs1045"></defs><g id="SvgjsG1046"><svg xmlns="http://www.w3.org/2000/svg" enable-background="new 0 0 67 67" viewBox="0 0 67 67" width="288" height="288"><path d="M51.4,7.8V2.5c0-0.5-0.4-1-1-1H6.1c-0.5,0-1,0.4-1,1v53.8c0,0.5,0.4,1,1,1h7.5V10.7c0-1.6,1.3-2.9,2.9-2.9H51.4z" fill="#ffffff" class="color000 svgShape"></path><path d="M28.8 20.3c-1.1.1-2 .7-2 1.8 0 1.2.8 1.5 2 1.9V20.3zM32.4 28.9c0-1.2-.9-1.6-2.2-2v3.8C31.3 30.6 32.4 30.1 32.4 28.9z" fill="#ffffff" class="color000 svgShape"></path><path d="M60.9,9.7H16.5c-0.5,0-1,0.4-1,1v53.8c0,0.5,0.4,1,1,1h44.3c0.5,0,1-0.4,1-1V10.7C61.8,10.2,61.4,9.7,60.9,9.7z M24.1,22.3
		c0-2.6,2-4.2,4.6-4.3v-1.1h1.4V18c1.6,0.1,3,0.6,4.4,1.6l-1.4,2c-0.9-0.7-2-1.1-3-1.2v4h0.1c2.7,0.6,4.8,1.6,4.8,4.4
		c0,2.7-2.2,4.2-4.8,4.3v1.5h-1.4V33c-1.9-0.2-3.7-1-5.2-2.3l1.6-1.9c1.2,1,2.4,1.7,3.7,1.9v-4.1C26.1,25.9,24.1,25,24.1,22.3z
		 M53.6,58.4H23.8c-0.5,0-1-0.4-1-1c0-0.5,0.4-1,1-1h29.7c0.5,0,1,0.4,1,1C54.5,58,54.1,58.4,53.6,58.4z M53.6,50.5H23.8
		c-0.5,0-1-0.4-1-1c0-0.5,0.4-1,1-1h29.7c0.5,0,1,0.4,1,1C54.5,50,54.1,50.5,53.6,50.5z M53.6,42.5H23.8c-0.5,0-1-0.4-1-1s0.4-1,1-1
		h29.7c0.5,0,1,0.4,1,1S54.1,42.5,53.6,42.5z M53.6,34.6H38.9c-0.5,0-1-0.4-1-1c0-0.5,0.4-1,1-1h14.6c0.5,0,1,0.4,1,1
		C54.5,34.2,54.1,34.6,53.6,34.6z M53.6,26.7H38.9c-0.5,0-1-0.4-1-1s0.4-1,1-1h14.6c0.5,0,1,0.4,1,1S54.1,26.7,53.6,26.7z
		 M53.6,18.8H38.9c-0.5,0-1-0.4-1-1c0-0.5,0.4-1,1-1h14.6c0.5,0,1,0.4,1,1C54.5,18.3,54.1,18.8,53.6,18.8z" fill="#ffffff" class="color000 svgShape"></path></svg></g></svg>