<svg id="SvgjsSvg1039" width="288" height="288" xmlns="http://www.w3.org/2000/svg" version="1.1" xmlns:xlink="http://www.w3.org/1999/xlink" xmlns:svgjs="http://svgjs.com/svgjs"><defs id="SvgjsDefs1040"></defs><g id="SvgjsG1041"><svg xmlns="http://www.w3.org/2000/svg" viewBox="0 0 24 24" width="288" height="288"><path d="M12.59,13l-2.3,2.29a1,1,0,0,0,0,1.42,1,1,0,0,0,1.42,0l4-4a1,1,0,0,0,.21-.33,1,1,0,0,0,0-.76,1,1,0,0,0-.21-.33l-4-4a1,1,0,1,0-1.42,1.42L12.59,11H3a1,1,0,0,0,0,2ZM12,2A10,10,0,0,0,3,7.55a1,1,0,0,0,1.8.9A8,8,0,1,1,12,20a7.93,7.93,0,0,1-7.16-4.45,1,1,0,0,0-1.8.9A10,10,0,1,0,12,2Z" fill="#ffffff" class="color000 svgShape"></path></svg></g></svg>