<svg id="SvgjsSvg1012" width="288" height="288" xmlns="http://www.w3.org/2000/svg" version="1.1" xmlns:xlink="http://www.w3.org/1999/xlink" xmlns:svgjs="http://svgjs.com/svgjs"><defs id="SvgjsDefs1013"></defs><g id="SvgjsG1014"><svg xmlns="http://www.w3.org/2000/svg" enable-background="new 0 0 32 32" viewBox="0 0 32 32" width="288" height="288"><path d="M25,13.08V10c0-1.65-1.35-3-3-3h-3c0-3.31-2.69-6-6-6S7,3.69,7,7H4c-1.65,0-3,1.35-3,3v18c0,1.65,1.35,3,3,3h18c1.65,0,3-1.35,3-3v-1.08c3.39-0.49,6-3.4,6-6.92C31,16.48,28.39,13.57,25,13.08z M13,3c2.21,0,4,1.79,4,4H9C9,4.79,10.79,3,13,3z M24,25c-2.76,0-5-2.24-5-5s2.24-5,5-5s5,2.24,5,5S26.76,25,24,25z" fill="#ffffff" class="color000 svgShape"></path><path d="M25.793,17.793L23.5,20.086l-1.293-1.293c-0.391-0.391-1.023-0.391-1.414,0s-0.391,1.023,0,1.414l2,2c0.195,0.195,0.451,0.293,0.707,0.293s0.512-0.098,0.707-0.293l3-3c0.391-0.391,0.391-1.023,0-1.414S26.184,17.402,25.793,17.793z" fill="#ffffff" class="color000 svgShape"></path></svg></g></svg>