<svg id="SvgjsSvg1127" width="288" height="288" xmlns="http://www.w3.org/2000/svg" version="1.1" xmlns:xlink="http://www.w3.org/1999/xlink" xmlns:svgjs="http://svgjs.com/svgjs"><defs id="SvgjsDefs1128"></defs><g id="SvgjsG1129"><svg xmlns="http://www.w3.org/2000/svg" enable-background="new 0 0 60 60" viewBox="0 0 60 60" width="288" height="288"><path d="M30,7C16.5419922,7,6,13.1494141,6,21v9v9c0,7.8505859,10.5419922,14,24,14s24-6.1494141,24-14v-9v-9
		C54,13.1494141,43.4580078,7,30,7z M52,39c0,6.6171875-9.8691406,12-22,12S8,45.6171875,8,39v-3.3137817
		C11.6702881,40.6252441,20.0327759,44,30,44s18.3297119-3.3747559,22-8.3137817V39z M52,30c0,6.6171875-9.8691406,12-22,12
		S8,36.6171875,8,30v-3.3137817C11.6702881,31.6252441,20.0327759,35,30,35s18.3297119-3.3747559,22-8.3137817V30z M30,33
		C17.8691406,33,8,27.6171875,8,21S17.8691406,9,30,9s22,5.3828125,22,12S42.1308594,33,30,33z" fill="#ffffff" class="color000 svgShape"></path><path d="M30,11c-11.2148438,0-20,4.3925781-20,10s8.7851563,10,20,10s20-4.3925781,20-10S41.2148438,11,30,11z M30,29
		c-9.7568359,0-18-3.6630859-18-8s8.2431641-8,18-8s18,3.6630859,18,8S39.7568359,29,30,29z" fill="#ffffff" class="color000 svgShape"></path><path d="M30,17.4785156c1.8613281,0,3,0.8164063,3,1.2607422h2c0-1.6344604-1.6620483-2.9130859-4-3.1989746v-0.7580566h-2
		v0.7580566c-2.3379517,0.2858887-4,1.5645142-4,3.1989746C25,20.5986328,27.1494141,22,30,22c1.8613281,0,3,0.8164063,3,1.2607422
		s-1.1386719,1.2607422-3,1.2607422c-1.8608398,0-3-0.8164063-3-1.2607422h-2c0,1.6344604,1.6620483,2.9130859,4,3.1989746
		v0.7580566h2v-0.7580566c2.3379517-0.2858887,4-1.5645142,4-3.1989746C35,21.4013672,32.8505859,20,30,20
		c-1.8608398,0-3-0.8164063-3-1.2607422S28.1391602,17.4785156,30,17.4785156z" fill="#ffffff" class="color000 svgShape"></path></svg></g></svg>