<svg id="SvgjsSvg1111" width="288" height="288" xmlns="http://www.w3.org/2000/svg" version="1.1" xmlns:xlink="http://www.w3.org/1999/xlink" xmlns:svgjs="http://svgjs.com/svgjs"><defs id="SvgjsDefs1112"></defs><g id="SvgjsG1113"><svg xmlns="http://www.w3.org/2000/svg" viewBox="0 0 11.821 6.279" width="288" height="288"><g transform="translate(-76.337 -79.434) scale(.26458)" fill="#ffffff" class="color000 svgShape"><path style="-inkscape-stroke:none" d="M307.16561 302.58296c-2.86461 0-5.2071 2.34444-5.2071 5.20906 0 2.86462 2.34249 5.2071 5.2071 5.2071a1.0000985 1.0000985 0 00.0429 0c.0289-.001.0113-.001.0253-.002.0427.002-.0406.002.0292.002h16.55637a1.0000985 1.0000985 0 00.15194.006c.0468-.002.0327-.003.0409-.004 1.77796.007 3.19674 1.42685 3.19674 3.20646 0 1.78158-1.42182 3.20307-3.20258 3.20647-.0117-.00099.005-.00025-.0351-.002a1.0000985 1.0000985 0 00-.47142.0974c.16963-.0808.33815-.0935.40324-.0935h-24.66216a.99999852.99999852 0 00-1.00129 1.00129.99999852.99999852 0 001.00129.99935h24.66216c.003 0 .0125-.004.0156-.004.01.00096-.006.002.039.004a1.0000985 1.0000985 0 00.0429 0c2.86463 0 5.2071-2.34446 5.2071-5.20906 0-2.86462-2.34247-5.2071-5.2071-5.2071a1.0000985 1.0000985 0 00-.0429 0c-.0289.001-.0112.001-.0253.002-.0427-.002.0406-.002-.0292-.002h-16.55637a1.0000985 1.0000985 0 00-.15195-.004c-.0445.002-.0293.00099-.039.002-1.77887-.006-3.19868-1.4262-3.19868-3.20647 0-1.78373 1.42469-3.20842 3.20841-3.20842.0286 0 .0452-.00019.0507 0a1.0000985 1.0000985 0 00.0351 0c.17065 0 .17436 0 .0117 0h16.64013a.99999852.99999852 0 001.0013-.99934.99999852.99999852 0 00-1.0013-1.0013h-16.64011c-.11531 0-.045.002-.008.002-.034-.00068-.0684-.002-.0897-.002zM329.91869 300.22195c-1.79869 0-3.27659 1.47984-3.27659 3.27855 0 1.79869 1.4779 3.27659 3.27659 3.27659 1.7987 0 3.27855-1.4779 3.27855-3.27659 0-1.79871-1.47985-3.27855-3.27855-3.27855zm0 1.99868c.71783 0 1.27987.56204 1.27987 1.27987 0 .71781-.56204 1.27791-1.27987 1.27791-.71782 0-1.27791-.5601-1.27791-1.27791 0-.71783.56009-1.27987 1.27791-1.27987zM293.95402 317.39779c-1.7987 0-3.27855 1.47985-3.27855 3.27855 0 1.7987 1.47985 3.27855 3.27855 3.27855 1.7987 0 3.27855-1.47985 3.27855-3.27855 0-1.7987-1.47985-3.27855-3.27855-3.27855zm0 1.99869c.71783 0 1.27791.56204 1.27791 1.27986 0 .71783-.56008 1.27791-1.27791 1.27791-.71782 0-1.27791-.56008-1.27791-1.27791 0-.71782.56009-1.27986 1.27791-1.27986zM293.95535 302.58374c-2.99081 0-5.4361 2.51721-5.4361 5.59598 0 2.2806 1.26202 4.3221 2.43904 5.84825 1.17702 1.52615 2.35791 2.56021 2.35791 2.56021a.98570875 1.0146998 0 001.28906-.009c0 0 1.17639-1.0593 2.35045-2.596 1.17407-1.5367 2.43573-3.56451 2.43573-5.80308 0-3.07877-2.44528-5.59597-5.43609-5.59597zm0 2.0284c1.92548 0 3.46565 1.58547 3.46565 3.56758 0 1.38278-.96377 3.17244-2.01515 4.54854-.74764.97857-1.1247 1.2947-1.49355 1.6534-.38941-.39821-.89713-.94989-1.41078-1.6159-1.04841-1.35939-2.01183-3.1362-2.01183-4.58604 0-1.98211 1.54017-3.56758 3.46566-3.56758z" color="#000" fill="#ffffff" class="color000 svgShape"></path><path style="-inkscape-stroke:none" d="m 293.95535,305.61355 c -1.58616,0 -2.89274,1.34586 -2.89274,2.97867 0,1.6328 1.30658,2.97782 2.89274,2.97782 1.58615,0 2.89273,-1.34502 2.89273,-2.97782 0,-1.63281 -1.30658,-2.97867 -2.89273,-2.97867 z m 0,2.02924 c 0.52082,0 0.92229,0.41328 0.92229,0.94943 0,0.53615 -0.40147,0.94857 -0.92229,0.94857 -0.52083,0 -0.9223,-0.41242 -0.9223,-0.94857 0,-0.53615 0.40147,-0.94943 0.9223,-0.94943 z" color="#000" fill="#ffffff" class="color000 svgShape"></path></g></svg></g></svg>